<mxfile host="Electron" modified="2024-03-14T19:39:15.088Z" agent="Mozilla/5.0 (Windows NT 10.0; Win64; x64) AppleWebKit/537.36 (KHTML, like Gecko) draw.io/23.1.5 Chrome/120.0.6099.109 Electron/28.1.0 Safari/537.36" etag="RgEil7hW6ZOXGDGVDjKx" version="23.1.5" type="device">
  <diagram name="Страница — 1" id="EQ2OE8ALPf1RlmZPFgjo">
    <mxGraphModel dx="2263" dy="968" grid="1" gridSize="10" guides="1" tooltips="1" connect="1" arrows="1" fold="1" page="1" pageScale="1" pageWidth="827" pageHeight="1169" math="0" shadow="0">
      <root>
        <mxCell id="0" />
        <mxCell id="1" parent="0" />
        <mxCell id="38HP3IzOZBY9DrxJzYLU-49" value=":БД" style="shape=umlLifeline;perimeter=lifelinePerimeter;whiteSpace=wrap;html=1;container=1;dropTarget=0;collapsible=0;recursiveResize=0;outlineConnect=0;portConstraint=eastwest;newEdgeStyle={&quot;curved&quot;:0,&quot;rounded&quot;:0};" parent="1" vertex="1">
          <mxGeometry x="1230" y="80" width="100" height="1180" as="geometry" />
        </mxCell>
        <mxCell id="38HP3IzOZBY9DrxJzYLU-58" value="" style="html=1;points=[[0,0,0,0,5],[0,1,0,0,-5],[1,0,0,0,5],[1,1,0,0,-5]];perimeter=orthogonalPerimeter;outlineConnect=0;targetShapes=umlLifeline;portConstraint=eastwest;newEdgeStyle={&quot;curved&quot;:0,&quot;rounded&quot;:0};" parent="38HP3IzOZBY9DrxJzYLU-49" vertex="1">
          <mxGeometry x="45" y="684" width="10" height="40" as="geometry" />
        </mxCell>
        <mxCell id="J8reJ44I3U6G_yb-iDPF-12" value="" style="html=1;points=[[0,0,0,0,5],[0,1,0,0,-5],[1,0,0,0,5],[1,1,0,0,-5]];perimeter=orthogonalPerimeter;outlineConnect=0;targetShapes=umlLifeline;portConstraint=eastwest;newEdgeStyle={&quot;curved&quot;:0,&quot;rounded&quot;:0};" parent="38HP3IzOZBY9DrxJzYLU-49" vertex="1">
          <mxGeometry x="45" y="920" width="10" height="40" as="geometry" />
        </mxCell>
        <mxCell id="38HP3IzOZBY9DrxJzYLU-1" value="" style="shape=umlLifeline;perimeter=lifelinePerimeter;whiteSpace=wrap;html=1;container=1;dropTarget=0;collapsible=0;recursiveResize=0;outlineConnect=0;portConstraint=eastwest;newEdgeStyle={&quot;curved&quot;:0,&quot;rounded&quot;:0};participant=umlActor;" parent="1" vertex="1">
          <mxGeometry x="70" y="80" width="20" height="1180" as="geometry" />
        </mxCell>
        <mxCell id="38HP3IzOZBY9DrxJzYLU-4" value="" style="html=1;points=[[0,0,0,0,5],[0,1,0,0,-5],[1,0,0,0,5],[1,1,0,0,-5]];perimeter=orthogonalPerimeter;outlineConnect=0;targetShapes=umlLifeline;portConstraint=eastwest;newEdgeStyle={&quot;curved&quot;:0,&quot;rounded&quot;:0};" parent="38HP3IzOZBY9DrxJzYLU-1" vertex="1">
          <mxGeometry x="5" y="50" width="10" height="1120" as="geometry" />
        </mxCell>
        <mxCell id="38HP3IzOZBY9DrxJzYLU-2" value="Гость" style="text;html=1;align=center;verticalAlign=middle;whiteSpace=wrap;rounded=0;" parent="1" vertex="1">
          <mxGeometry x="30" y="110" width="60" height="30" as="geometry" />
        </mxCell>
        <mxCell id="38HP3IzOZBY9DrxJzYLU-3" value=":GUI" style="shape=umlLifeline;perimeter=lifelinePerimeter;whiteSpace=wrap;html=1;container=1;dropTarget=0;collapsible=0;recursiveResize=0;outlineConnect=0;portConstraint=eastwest;newEdgeStyle={&quot;curved&quot;:0,&quot;rounded&quot;:0};" parent="1" vertex="1">
          <mxGeometry x="230" y="80" width="100" height="1180" as="geometry" />
        </mxCell>
        <mxCell id="38HP3IzOZBY9DrxJzYLU-16" value="" style="html=1;points=[[0,0,0,0,5],[0,1,0,0,-5],[1,0,0,0,5],[1,1,0,0,-5]];perimeter=orthogonalPerimeter;outlineConnect=0;targetShapes=umlLifeline;portConstraint=eastwest;newEdgeStyle={&quot;curved&quot;:0,&quot;rounded&quot;:0};" parent="38HP3IzOZBY9DrxJzYLU-3" vertex="1">
          <mxGeometry x="45" y="313" width="10" height="290" as="geometry" />
        </mxCell>
        <mxCell id="38HP3IzOZBY9DrxJzYLU-28" value="" style="html=1;points=[[0,0,0,0,5],[0,1,0,0,-5],[1,0,0,0,5],[1,1,0,0,-5]];perimeter=orthogonalPerimeter;outlineConnect=0;targetShapes=umlLifeline;portConstraint=eastwest;newEdgeStyle={&quot;curved&quot;:0,&quot;rounded&quot;:0};" parent="38HP3IzOZBY9DrxJzYLU-3" vertex="1">
          <mxGeometry x="51" y="433" width="10" height="40" as="geometry" />
        </mxCell>
        <mxCell id="38HP3IzOZBY9DrxJzYLU-29" value="деактивировать&lt;br&gt;кнопку&lt;br&gt;&quot;Изменить&quot;" style="html=1;align=left;spacingLeft=2;endArrow=block;rounded=0;edgeStyle=orthogonalEdgeStyle;curved=0;rounded=0;" parent="38HP3IzOZBY9DrxJzYLU-3" source="38HP3IzOZBY9DrxJzYLU-16" target="38HP3IzOZBY9DrxJzYLU-28" edge="1">
          <mxGeometry relative="1" as="geometry">
            <mxPoint x="56" y="413" as="sourcePoint" />
            <Array as="points">
              <mxPoint x="86" y="413" />
              <mxPoint x="86" y="453" />
            </Array>
          </mxGeometry>
        </mxCell>
        <mxCell id="38HP3IzOZBY9DrxJzYLU-38" value="" style="html=1;points=[[0,0,0,0,5],[0,1,0,0,-5],[1,0,0,0,5],[1,1,0,0,-5]];perimeter=orthogonalPerimeter;outlineConnect=0;targetShapes=umlLifeline;portConstraint=eastwest;newEdgeStyle={&quot;curved&quot;:0,&quot;rounded&quot;:0};" parent="38HP3IzOZBY9DrxJzYLU-3" vertex="1">
          <mxGeometry x="45" y="630" width="10" height="540" as="geometry" />
        </mxCell>
        <mxCell id="38HP3IzOZBY9DrxJzYLU-84" value="&lt;b&gt;alt&lt;/b&gt;" style="shape=umlFrame;whiteSpace=wrap;html=1;pointerEvents=0;width=40;height=20;" parent="38HP3IzOZBY9DrxJzYLU-3" vertex="1">
          <mxGeometry x="-230" y="1010" width="470" height="141" as="geometry" />
        </mxCell>
        <mxCell id="38HP3IzOZBY9DrxJzYLU-85" value="&lt;span style=&quot;color: rgb(0, 0, 0); font-family: Helvetica; font-size: 12px; font-style: normal; font-variant-ligatures: normal; font-variant-caps: normal; font-weight: 400; letter-spacing: normal; orphans: 2; text-align: center; text-indent: 0px; text-transform: none; widows: 2; word-spacing: 0px; -webkit-text-stroke-width: 0px; background-color: rgb(251, 251, 251); text-decoration-thickness: initial; text-decoration-style: initial; text-decoration-color: initial; float: none; display: inline !important;&quot;&gt;[успех]&lt;/span&gt;" style="text;whiteSpace=wrap;html=1;" parent="38HP3IzOZBY9DrxJzYLU-3" vertex="1">
          <mxGeometry x="-230" y="1031" width="40" height="30" as="geometry" />
        </mxCell>
        <mxCell id="38HP3IzOZBY9DrxJzYLU-86" value="" style="html=1;points=[[0,0,0,0,5],[0,1,0,0,-5],[1,0,0,0,5],[1,1,0,0,-5]];perimeter=orthogonalPerimeter;outlineConnect=0;targetShapes=umlLifeline;portConstraint=eastwest;newEdgeStyle={&quot;curved&quot;:0,&quot;rounded&quot;:0};" parent="38HP3IzOZBY9DrxJzYLU-3" vertex="1">
          <mxGeometry x="51" y="1041" width="10" height="40" as="geometry" />
        </mxCell>
        <mxCell id="38HP3IzOZBY9DrxJzYLU-87" value="переход на форму входа" style="html=1;align=left;spacingLeft=2;endArrow=block;rounded=0;edgeStyle=orthogonalEdgeStyle;curved=0;rounded=0;" parent="38HP3IzOZBY9DrxJzYLU-3" target="38HP3IzOZBY9DrxJzYLU-86" edge="1">
          <mxGeometry relative="1" as="geometry">
            <mxPoint x="55" y="1021" as="sourcePoint" />
            <Array as="points">
              <mxPoint x="86" y="1021" />
              <mxPoint x="86" y="1061" />
            </Array>
          </mxGeometry>
        </mxCell>
        <mxCell id="38HP3IzOZBY9DrxJzYLU-88" value="" style="endArrow=none;dashed=1;html=1;rounded=0;exitX=0;exitY=0.652;exitDx=0;exitDy=0;exitPerimeter=0;" parent="38HP3IzOZBY9DrxJzYLU-3" source="38HP3IzOZBY9DrxJzYLU-84" edge="1">
          <mxGeometry width="50" height="50" relative="1" as="geometry">
            <mxPoint x="-273" y="1111" as="sourcePoint" />
            <mxPoint x="240" y="1102" as="targetPoint" />
          </mxGeometry>
        </mxCell>
        <mxCell id="38HP3IzOZBY9DrxJzYLU-89" value="Отобразить страницу" style="html=1;verticalAlign=bottom;endArrow=open;dashed=1;endSize=8;curved=0;rounded=0;" parent="38HP3IzOZBY9DrxJzYLU-3" edge="1">
          <mxGeometry relative="1" as="geometry">
            <mxPoint x="-145" y="1092" as="targetPoint" />
            <mxPoint x="45" y="1092" as="sourcePoint" />
          </mxGeometry>
        </mxCell>
        <mxCell id="38HP3IzOZBY9DrxJzYLU-90" value="Сообщить об ошибке" style="html=1;verticalAlign=bottom;endArrow=open;dashed=1;endSize=8;curved=0;rounded=0;exitX=0;exitY=1;exitDx=0;exitDy=-5;exitPerimeter=0;" parent="38HP3IzOZBY9DrxJzYLU-3" edge="1">
          <mxGeometry relative="1" as="geometry">
            <mxPoint x="-145" y="1136" as="targetPoint" />
            <mxPoint x="45" y="1136" as="sourcePoint" />
          </mxGeometry>
        </mxCell>
        <mxCell id="38HP3IzOZBY9DrxJzYLU-9" value="Переход по ссылке из письма" style="html=1;verticalAlign=bottom;endArrow=block;curved=0;rounded=0;entryX=0;entryY=0;entryDx=0;entryDy=5;entryPerimeter=0;" parent="1" source="38HP3IzOZBY9DrxJzYLU-4" target="38HP3IzOZBY9DrxJzYLU-5" edge="1">
          <mxGeometry x="-0.678" relative="1" as="geometry">
            <mxPoint x="340" y="295" as="sourcePoint" />
            <mxPoint x="410" y="295" as="targetPoint" />
            <mxPoint as="offset" />
          </mxGeometry>
        </mxCell>
        <mxCell id="38HP3IzOZBY9DrxJzYLU-10" value=":Валидатор GUI" style="shape=umlLifeline;perimeter=lifelinePerimeter;whiteSpace=wrap;html=1;container=1;dropTarget=0;collapsible=0;recursiveResize=0;outlineConnect=0;portConstraint=eastwest;newEdgeStyle={&quot;curved&quot;:0,&quot;rounded&quot;:0};" parent="1" vertex="1">
          <mxGeometry x="430" y="80" width="100" height="1180" as="geometry" />
        </mxCell>
        <mxCell id="38HP3IzOZBY9DrxJzYLU-20" value="" style="html=1;points=[[0,0,0,0,5],[0,1,0,0,-5],[1,0,0,0,5],[1,1,0,0,-5]];perimeter=orthogonalPerimeter;outlineConnect=0;targetShapes=umlLifeline;portConstraint=eastwest;newEdgeStyle={&quot;curved&quot;:0,&quot;rounded&quot;:0};" parent="38HP3IzOZBY9DrxJzYLU-10" vertex="1">
          <mxGeometry x="45" y="323" width="10" height="40" as="geometry" />
        </mxCell>
        <mxCell id="38HP3IzOZBY9DrxJzYLU-15" value="Форма ввода нового пароля" style="html=1;verticalAlign=bottom;endArrow=open;dashed=1;endSize=8;curved=0;rounded=0;exitX=0;exitY=1;exitDx=0;exitDy=-5;exitPerimeter=0;entryX=1;entryY=0;entryDx=0;entryDy=5;entryPerimeter=0;" parent="1" source="38HP3IzOZBY9DrxJzYLU-5" target="XjYcZcesML744aaThFoi-21" edge="1">
          <mxGeometry x="0.5641" relative="1" as="geometry">
            <mxPoint x="100" y="170" as="targetPoint" />
            <mxPoint x="170" y="170" as="sourcePoint" />
            <mxPoint as="offset" />
          </mxGeometry>
        </mxCell>
        <mxCell id="38HP3IzOZBY9DrxJzYLU-17" value="Заполнение поля пароля" style="html=1;verticalAlign=bottom;endArrow=block;curved=0;rounded=0;entryX=0;entryY=0;entryDx=0;entryDy=5;entryPerimeter=0;" parent="1" target="38HP3IzOZBY9DrxJzYLU-16" edge="1">
          <mxGeometry relative="1" as="geometry">
            <mxPoint x="85" y="398" as="sourcePoint" />
            <mxPoint x="245" y="348" as="targetPoint" />
          </mxGeometry>
        </mxCell>
        <mxCell id="38HP3IzOZBY9DrxJzYLU-21" value="Валидация полей" style="html=1;verticalAlign=bottom;endArrow=block;curved=0;rounded=0;entryX=0;entryY=0;entryDx=0;entryDy=5;entryPerimeter=0;" parent="1" source="38HP3IzOZBY9DrxJzYLU-16" target="38HP3IzOZBY9DrxJzYLU-20" edge="1">
          <mxGeometry relative="1" as="geometry">
            <mxPoint x="245" y="408" as="sourcePoint" />
            <mxPoint x="570" y="568" as="targetPoint" />
          </mxGeometry>
        </mxCell>
        <mxCell id="38HP3IzOZBY9DrxJzYLU-22" value="Результат валидации" style="html=1;verticalAlign=bottom;endArrow=open;dashed=1;endSize=8;curved=0;rounded=0;exitX=0;exitY=1;exitDx=0;exitDy=-5;exitPerimeter=0;" parent="1" source="38HP3IzOZBY9DrxJzYLU-20" target="38HP3IzOZBY9DrxJzYLU-16" edge="1">
          <mxGeometry relative="1" as="geometry">
            <mxPoint x="245" y="438" as="targetPoint" />
            <mxPoint x="330" y="443" as="sourcePoint" />
          </mxGeometry>
        </mxCell>
        <mxCell id="38HP3IzOZBY9DrxJzYLU-23" value="&lt;b&gt;alt&lt;/b&gt;" style="shape=umlFrame;whiteSpace=wrap;html=1;pointerEvents=0;width=40;height=20;" parent="1" vertex="1">
          <mxGeometry x="-30" y="448" width="500" height="245" as="geometry" />
        </mxCell>
        <mxCell id="38HP3IzOZBY9DrxJzYLU-24" value="[поле невалидно]" style="text;html=1;align=center;verticalAlign=middle;whiteSpace=wrap;rounded=0;" parent="1" vertex="1">
          <mxGeometry x="-30" y="468" width="100" height="30" as="geometry" />
        </mxCell>
        <mxCell id="38HP3IzOZBY9DrxJzYLU-26" value="&lt;b&gt;opt&lt;/b&gt;" style="shape=umlFrame;whiteSpace=wrap;html=1;pointerEvents=0;width=40;height=20;" parent="1" vertex="1">
          <mxGeometry x="110" y="483" width="350" height="80" as="geometry" />
        </mxCell>
        <mxCell id="38HP3IzOZBY9DrxJzYLU-27" value="[кнопка &quot;Изменить&quot;&lt;br style=&quot;border-color: var(--border-color);&quot;&gt;активна]" style="text;html=1;align=center;verticalAlign=middle;whiteSpace=wrap;rounded=0;" parent="1" vertex="1">
          <mxGeometry x="120" y="503" width="100" height="30" as="geometry" />
        </mxCell>
        <mxCell id="38HP3IzOZBY9DrxJzYLU-30" value="Сообщить об ошибке" style="html=1;verticalAlign=bottom;endArrow=open;dashed=1;endSize=8;curved=0;rounded=0;exitX=0;exitY=1;exitDx=0;exitDy=-5;exitPerimeter=0;" parent="1" edge="1">
          <mxGeometry relative="1" as="geometry">
            <mxPoint x="85" y="583" as="targetPoint" />
            <mxPoint x="275" y="583" as="sourcePoint" />
          </mxGeometry>
        </mxCell>
        <mxCell id="38HP3IzOZBY9DrxJzYLU-31" value="" style="endArrow=none;dashed=1;html=1;rounded=0;exitX=-0.004;exitY=0.608;exitDx=0;exitDy=0;exitPerimeter=0;entryX=1.005;entryY=0.613;entryDx=0;entryDy=0;entryPerimeter=0;" parent="1" edge="1" target="38HP3IzOZBY9DrxJzYLU-23" source="38HP3IzOZBY9DrxJzYLU-23">
          <mxGeometry width="50" height="50" relative="1" as="geometry">
            <mxPoint x="98.15000000000009" y="591.5" as="sourcePoint" />
            <mxPoint x="471.8499999999999" y="591.5" as="targetPoint" />
          </mxGeometry>
        </mxCell>
        <mxCell id="38HP3IzOZBY9DrxJzYLU-32" value="[поле валидно]" style="text;html=1;align=center;verticalAlign=middle;whiteSpace=wrap;rounded=0;" parent="1" vertex="1">
          <mxGeometry x="-30" y="599" width="100" height="30" as="geometry" />
        </mxCell>
        <mxCell id="38HP3IzOZBY9DrxJzYLU-33" value="" style="html=1;points=[[0,0,0,0,5],[0,1,0,0,-5],[1,0,0,0,5],[1,1,0,0,-5]];perimeter=orthogonalPerimeter;outlineConnect=0;targetShapes=umlLifeline;portConstraint=eastwest;newEdgeStyle={&quot;curved&quot;:0,&quot;rounded&quot;:0};" parent="1" vertex="1">
          <mxGeometry x="281" y="629" width="10" height="40" as="geometry" />
        </mxCell>
        <mxCell id="38HP3IzOZBY9DrxJzYLU-34" value="активировать&lt;br&gt;кнопку&lt;br&gt;&quot;Изменить&quot;" style="html=1;align=left;spacingLeft=2;endArrow=block;rounded=0;edgeStyle=orthogonalEdgeStyle;curved=0;rounded=0;" parent="1" target="38HP3IzOZBY9DrxJzYLU-33" edge="1">
          <mxGeometry relative="1" as="geometry">
            <mxPoint x="285" y="609" as="sourcePoint" />
            <Array as="points">
              <mxPoint x="316" y="609" />
              <mxPoint x="316" y="649" />
            </Array>
          </mxGeometry>
        </mxCell>
        <mxCell id="38HP3IzOZBY9DrxJzYLU-37" value="Отобразить поле" style="html=1;verticalAlign=bottom;endArrow=open;dashed=1;endSize=8;curved=0;rounded=0;exitX=0;exitY=1;exitDx=0;exitDy=-5;exitPerimeter=0;" parent="1" source="38HP3IzOZBY9DrxJzYLU-16" edge="1">
          <mxGeometry relative="1" as="geometry">
            <mxPoint x="85" y="677.9999999999998" as="targetPoint" />
            <mxPoint x="275" y="727" as="sourcePoint" />
          </mxGeometry>
        </mxCell>
        <mxCell id="38HP3IzOZBY9DrxJzYLU-39" value="Нажать на &quot;Изменить пароль&quot;" style="html=1;verticalAlign=bottom;endArrow=block;curved=0;rounded=0;entryX=0;entryY=0;entryDx=0;entryDy=5;entryPerimeter=0;" parent="1" edge="1">
          <mxGeometry relative="1" as="geometry">
            <mxPoint x="85" y="718.0000000000002" as="sourcePoint" />
            <mxPoint x="275" y="718" as="targetPoint" />
          </mxGeometry>
        </mxCell>
        <mxCell id="38HP3IzOZBY9DrxJzYLU-41" value=":Обработчик команд" style="shape=umlLifeline;perimeter=lifelinePerimeter;whiteSpace=wrap;html=1;container=1;dropTarget=0;collapsible=0;recursiveResize=0;outlineConnect=0;portConstraint=eastwest;newEdgeStyle={&quot;curved&quot;:0,&quot;rounded&quot;:0};" parent="1" vertex="1">
          <mxGeometry x="630" y="80" width="100" height="1180" as="geometry" />
        </mxCell>
        <mxCell id="38HP3IzOZBY9DrxJzYLU-42" value="" style="html=1;points=[[0,0,0,0,5],[0,1,0,0,-5],[1,0,0,0,5],[1,1,0,0,-5]];perimeter=orthogonalPerimeter;outlineConnect=0;targetShapes=umlLifeline;portConstraint=eastwest;newEdgeStyle={&quot;curved&quot;:0,&quot;rounded&quot;:0};" parent="38HP3IzOZBY9DrxJzYLU-41" vertex="1">
          <mxGeometry x="45" y="650" width="10" height="350" as="geometry" />
        </mxCell>
        <mxCell id="38HP3IzOZBY9DrxJzYLU-5" value="" style="html=1;points=[[0,0,0,0,5],[0,1,0,0,-5],[1,0,0,0,5],[1,1,0,0,-5]];perimeter=orthogonalPerimeter;outlineConnect=0;targetShapes=umlLifeline;portConstraint=eastwest;newEdgeStyle={&quot;curved&quot;:0,&quot;rounded&quot;:0};" parent="38HP3IzOZBY9DrxJzYLU-41" vertex="1">
          <mxGeometry x="45" y="50" width="10" height="220" as="geometry" />
        </mxCell>
        <mxCell id="38HP3IzOZBY9DrxJzYLU-43" value="HTTP-запрос" style="html=1;verticalAlign=bottom;endArrow=block;curved=0;rounded=0;entryX=0;entryY=0;entryDx=0;entryDy=5;entryPerimeter=0;" parent="1" target="38HP3IzOZBY9DrxJzYLU-42" edge="1">
          <mxGeometry x="-0.7179" y="5" relative="1" as="geometry">
            <mxPoint x="284.99999999999955" y="736" as="sourcePoint" />
            <mxPoint x="674.9999999999995" y="736" as="targetPoint" />
            <mxPoint as="offset" />
          </mxGeometry>
        </mxCell>
        <mxCell id="38HP3IzOZBY9DrxJzYLU-47" value=":Коннектор с БД" style="shape=umlLifeline;perimeter=lifelinePerimeter;whiteSpace=wrap;html=1;container=1;dropTarget=0;collapsible=0;recursiveResize=0;outlineConnect=0;portConstraint=eastwest;newEdgeStyle={&quot;curved&quot;:0,&quot;rounded&quot;:0};" parent="1" vertex="1">
          <mxGeometry x="1030" y="80" width="100" height="1180" as="geometry" />
        </mxCell>
        <mxCell id="38HP3IzOZBY9DrxJzYLU-48" value="" style="html=1;points=[[0,0,0,0,5],[0,1,0,0,-5],[1,0,0,0,5],[1,1,0,0,-5]];perimeter=orthogonalPerimeter;outlineConnect=0;targetShapes=umlLifeline;portConstraint=eastwest;newEdgeStyle={&quot;curved&quot;:0,&quot;rounded&quot;:0};" parent="38HP3IzOZBY9DrxJzYLU-47" vertex="1">
          <mxGeometry x="45" y="674" width="10" height="60" as="geometry" />
        </mxCell>
        <mxCell id="38HP3IzOZBY9DrxJzYLU-44" value=":Валидатор сервера" style="shape=umlLifeline;perimeter=lifelinePerimeter;whiteSpace=wrap;html=1;container=1;dropTarget=0;collapsible=0;recursiveResize=0;outlineConnect=0;portConstraint=eastwest;newEdgeStyle={&quot;curved&quot;:0,&quot;rounded&quot;:0};" parent="1" vertex="1">
          <mxGeometry x="830" y="80" width="100" height="1180" as="geometry" />
        </mxCell>
        <mxCell id="38HP3IzOZBY9DrxJzYLU-45" value="" style="html=1;points=[[0,0,0,0,5],[0,1,0,0,-5],[1,0,0,0,5],[1,1,0,0,-5]];perimeter=orthogonalPerimeter;outlineConnect=0;targetShapes=umlLifeline;portConstraint=eastwest;newEdgeStyle={&quot;curved&quot;:0,&quot;rounded&quot;:0};" parent="38HP3IzOZBY9DrxJzYLU-44" vertex="1">
          <mxGeometry x="45" y="663" width="10" height="167" as="geometry" />
        </mxCell>
        <mxCell id="XjYcZcesML744aaThFoi-2" value="" style="html=1;points=[[0,0,0,0,5],[0,1,0,0,-5],[1,0,0,0,5],[1,1,0,0,-5]];perimeter=orthogonalPerimeter;outlineConnect=0;targetShapes=umlLifeline;portConstraint=eastwest;newEdgeStyle={&quot;curved&quot;:0,&quot;rounded&quot;:0};" vertex="1" parent="38HP3IzOZBY9DrxJzYLU-44">
          <mxGeometry x="45" y="60" width="10" height="200" as="geometry" />
        </mxCell>
        <mxCell id="XjYcZcesML744aaThFoi-3" value="Валидация запроса" style="html=1;verticalAlign=bottom;endArrow=block;curved=0;rounded=0;entryX=0;entryY=0;entryDx=0;entryDy=5;entryPerimeter=0;" edge="1" parent="38HP3IzOZBY9DrxJzYLU-44">
          <mxGeometry x="-0.4211" relative="1" as="geometry">
            <mxPoint x="-145" y="66" as="sourcePoint" />
            <mxPoint x="45" y="66" as="targetPoint" />
            <mxPoint as="offset" />
          </mxGeometry>
        </mxCell>
        <mxCell id="XjYcZcesML744aaThFoi-4" value="" style="html=1;points=[[0,0,0,0,5],[0,1,0,0,-5],[1,0,0,0,5],[1,1,0,0,-5]];perimeter=orthogonalPerimeter;outlineConnect=0;targetShapes=umlLifeline;portConstraint=eastwest;newEdgeStyle={&quot;curved&quot;:0,&quot;rounded&quot;:0};" vertex="1" parent="38HP3IzOZBY9DrxJzYLU-44">
          <mxGeometry x="245" y="71" width="10" height="60" as="geometry" />
        </mxCell>
        <mxCell id="XjYcZcesML744aaThFoi-5" value="" style="html=1;points=[[0,0,0,0,5],[0,1,0,0,-5],[1,0,0,0,5],[1,1,0,0,-5]];perimeter=orthogonalPerimeter;outlineConnect=0;targetShapes=umlLifeline;portConstraint=eastwest;newEdgeStyle={&quot;curved&quot;:0,&quot;rounded&quot;:0};" vertex="1" parent="38HP3IzOZBY9DrxJzYLU-44">
          <mxGeometry x="445" y="81" width="10" height="40" as="geometry" />
        </mxCell>
        <mxCell id="XjYcZcesML744aaThFoi-6" value="Получить пользователя по UUID" style="html=1;verticalAlign=bottom;endArrow=block;curved=0;rounded=0;" edge="1" parent="38HP3IzOZBY9DrxJzYLU-44" target="XjYcZcesML744aaThFoi-4">
          <mxGeometry x="-0.1053" y="6" relative="1" as="geometry">
            <mxPoint x="55" y="76" as="sourcePoint" />
            <mxPoint x="55" y="76" as="targetPoint" />
            <mxPoint as="offset" />
          </mxGeometry>
        </mxCell>
        <mxCell id="XjYcZcesML744aaThFoi-7" value="Запрос данных о пользователе" style="html=1;verticalAlign=bottom;endArrow=block;curved=0;rounded=0;entryX=0;entryY=0;entryDx=0;entryDy=5;entryPerimeter=0;" edge="1" parent="38HP3IzOZBY9DrxJzYLU-44" source="XjYcZcesML744aaThFoi-4" target="XjYcZcesML744aaThFoi-5">
          <mxGeometry x="-0.1053" y="6" relative="1" as="geometry">
            <mxPoint x="65" y="86" as="sourcePoint" />
            <mxPoint x="255" y="86" as="targetPoint" />
            <mxPoint as="offset" />
          </mxGeometry>
        </mxCell>
        <mxCell id="XjYcZcesML744aaThFoi-8" value="Ответ" style="html=1;verticalAlign=bottom;endArrow=open;dashed=1;endSize=8;curved=0;rounded=0;exitX=0;exitY=1;exitDx=0;exitDy=-5;exitPerimeter=0;" edge="1" parent="38HP3IzOZBY9DrxJzYLU-44">
          <mxGeometry x="0.2105" relative="1" as="geometry">
            <mxPoint x="255" y="117" as="targetPoint" />
            <mxPoint x="445" y="117" as="sourcePoint" />
            <mxPoint as="offset" />
          </mxGeometry>
        </mxCell>
        <mxCell id="XjYcZcesML744aaThFoi-9" value="Ответ" style="html=1;verticalAlign=bottom;endArrow=open;dashed=1;endSize=8;curved=0;rounded=0;exitX=0;exitY=1;exitDx=0;exitDy=-5;exitPerimeter=0;" edge="1" parent="38HP3IzOZBY9DrxJzYLU-44">
          <mxGeometry x="0.2105" relative="1" as="geometry">
            <mxPoint x="55" y="127" as="targetPoint" />
            <mxPoint x="245" y="127" as="sourcePoint" />
            <mxPoint as="offset" />
          </mxGeometry>
        </mxCell>
        <mxCell id="XjYcZcesML744aaThFoi-10" value="Ошибка валидации" style="html=1;verticalAlign=bottom;endArrow=open;dashed=1;endSize=8;curved=0;rounded=0;" edge="1" parent="38HP3IzOZBY9DrxJzYLU-44">
          <mxGeometry x="0.3158" relative="1" as="geometry">
            <mxPoint x="-145" y="162" as="targetPoint" />
            <mxPoint x="45" y="162" as="sourcePoint" />
            <mxPoint as="offset" />
          </mxGeometry>
        </mxCell>
        <mxCell id="38HP3IzOZBY9DrxJzYLU-46" value="Валидация запроса" style="html=1;verticalAlign=bottom;endArrow=block;curved=0;rounded=0;entryX=0;entryY=0;entryDx=0;entryDy=5;entryPerimeter=0;" parent="1" edge="1">
          <mxGeometry x="-0.4211" relative="1" as="geometry">
            <mxPoint x="685" y="749" as="sourcePoint" />
            <mxPoint x="875" y="749" as="targetPoint" />
            <mxPoint as="offset" />
          </mxGeometry>
        </mxCell>
        <mxCell id="38HP3IzOZBY9DrxJzYLU-51" value="Получить пользователя по UUID" style="html=1;verticalAlign=bottom;endArrow=block;curved=0;rounded=0;entryX=0;entryY=0;entryDx=0;entryDy=5;entryPerimeter=0;" parent="1" target="38HP3IzOZBY9DrxJzYLU-48" edge="1">
          <mxGeometry x="-0.1053" y="6" relative="1" as="geometry">
            <mxPoint x="885" y="759" as="sourcePoint" />
            <mxPoint x="885" y="759" as="targetPoint" />
            <mxPoint as="offset" />
          </mxGeometry>
        </mxCell>
        <mxCell id="38HP3IzOZBY9DrxJzYLU-59" value="Запрос данных о пользователе" style="html=1;verticalAlign=bottom;endArrow=block;curved=0;rounded=0;entryX=0;entryY=0;entryDx=0;entryDy=5;entryPerimeter=0;" parent="1" source="38HP3IzOZBY9DrxJzYLU-48" target="38HP3IzOZBY9DrxJzYLU-58" edge="1">
          <mxGeometry x="-0.1053" y="6" relative="1" as="geometry">
            <mxPoint x="895" y="769" as="sourcePoint" />
            <mxPoint x="1085" y="769" as="targetPoint" />
            <mxPoint as="offset" />
          </mxGeometry>
        </mxCell>
        <mxCell id="38HP3IzOZBY9DrxJzYLU-60" value="Ответ" style="html=1;verticalAlign=bottom;endArrow=open;dashed=1;endSize=8;curved=0;rounded=0;exitX=0;exitY=1;exitDx=0;exitDy=-5;exitPerimeter=0;" parent="1" edge="1">
          <mxGeometry x="0.2105" relative="1" as="geometry">
            <mxPoint x="1085" y="800" as="targetPoint" />
            <mxPoint x="1275" y="800" as="sourcePoint" />
            <mxPoint as="offset" />
          </mxGeometry>
        </mxCell>
        <mxCell id="38HP3IzOZBY9DrxJzYLU-61" value="Ответ" style="html=1;verticalAlign=bottom;endArrow=open;dashed=1;endSize=8;curved=0;rounded=0;exitX=0;exitY=1;exitDx=0;exitDy=-5;exitPerimeter=0;" parent="1" edge="1">
          <mxGeometry x="0.2105" relative="1" as="geometry">
            <mxPoint x="885" y="810" as="targetPoint" />
            <mxPoint x="1075" y="810" as="sourcePoint" />
            <mxPoint as="offset" />
          </mxGeometry>
        </mxCell>
        <mxCell id="38HP3IzOZBY9DrxJzYLU-62" value="&lt;b&gt;alt&lt;/b&gt;" style="shape=umlFrame;whiteSpace=wrap;html=1;pointerEvents=0;width=40;height=20;" parent="1" vertex="1">
          <mxGeometry x="490" y="825" width="830" height="235" as="geometry" />
        </mxCell>
        <mxCell id="38HP3IzOZBY9DrxJzYLU-63" value="[пользователь не найден]" style="text;html=1;align=center;verticalAlign=middle;whiteSpace=wrap;rounded=0;" parent="1" vertex="1">
          <mxGeometry x="510" y="845" width="70" height="30" as="geometry" />
        </mxCell>
        <mxCell id="38HP3IzOZBY9DrxJzYLU-64" value="Ошибка валидации" style="html=1;verticalAlign=bottom;endArrow=open;dashed=1;endSize=8;curved=0;rounded=0;" parent="1" edge="1">
          <mxGeometry x="0.3158" relative="1" as="geometry">
            <mxPoint x="685" y="845" as="targetPoint" />
            <mxPoint x="875" y="845" as="sourcePoint" />
            <mxPoint as="offset" />
          </mxGeometry>
        </mxCell>
        <mxCell id="38HP3IzOZBY9DrxJzYLU-66" value="" style="endArrow=none;dashed=1;html=1;rounded=0;exitX=-0.001;exitY=0.13;exitDx=0;exitDy=0;exitPerimeter=0;" parent="1" edge="1">
          <mxGeometry width="50" height="50" relative="1" as="geometry">
            <mxPoint x="488.77" y="878.5500000000002" as="sourcePoint" />
            <mxPoint x="1320" y="880" as="targetPoint" />
          </mxGeometry>
        </mxCell>
        <mxCell id="38HP3IzOZBY9DrxJzYLU-67" value="[else]" style="text;html=1;align=center;verticalAlign=middle;whiteSpace=wrap;rounded=0;" parent="1" vertex="1">
          <mxGeometry x="490" y="875" width="50" height="30" as="geometry" />
        </mxCell>
        <mxCell id="38HP3IzOZBY9DrxJzYLU-75" value="Ответ" style="html=1;verticalAlign=bottom;endArrow=open;dashed=1;endSize=8;curved=0;rounded=0;exitX=0;exitY=1;exitDx=0;exitDy=-5;exitPerimeter=0;" parent="1" source="38HP3IzOZBY9DrxJzYLU-42" target="38HP3IzOZBY9DrxJzYLU-38" edge="1">
          <mxGeometry x="0.8205" relative="1" as="geometry">
            <mxPoint x="284.99999999999955" y="1186" as="targetPoint" />
            <mxPoint x="674.9999999999995" y="1186" as="sourcePoint" />
            <mxPoint as="offset" />
          </mxGeometry>
        </mxCell>
        <mxCell id="x03UTDk3xZk1rhKEXxxw-3" value="Успех" style="html=1;verticalAlign=bottom;endArrow=open;dashed=1;endSize=8;curved=0;rounded=0;exitX=0;exitY=1;exitDx=0;exitDy=-5;exitPerimeter=0;" parent="1" source="38HP3IzOZBY9DrxJzYLU-45" edge="1">
          <mxGeometry x="0.6316" y="-5" relative="1" as="geometry">
            <mxPoint x="684.9999999999995" y="905" as="targetPoint" />
            <mxPoint x="870" y="953" as="sourcePoint" />
            <mxPoint as="offset" />
          </mxGeometry>
        </mxCell>
        <mxCell id="J8reJ44I3U6G_yb-iDPF-8" value="" style="html=1;points=[[0,0,0,0,5],[0,1,0,0,-5],[1,0,0,0,5],[1,1,0,0,-5]];perimeter=orthogonalPerimeter;outlineConnect=0;targetShapes=umlLifeline;portConstraint=eastwest;newEdgeStyle={&quot;curved&quot;:0,&quot;rounded&quot;:0};" parent="1" vertex="1">
          <mxGeometry x="680" y="947.5" width="10" height="40" as="geometry" />
        </mxCell>
        <mxCell id="J8reJ44I3U6G_yb-iDPF-9" value="Посчитать хэш" style="html=1;align=left;spacingLeft=2;endArrow=block;rounded=0;edgeStyle=orthogonalEdgeStyle;curved=0;rounded=0;" parent="1" target="J8reJ44I3U6G_yb-iDPF-8" edge="1">
          <mxGeometry relative="1" as="geometry">
            <mxPoint x="684" y="927.5" as="sourcePoint" />
            <Array as="points">
              <mxPoint x="715" y="927.5" />
              <mxPoint x="715" y="967.5" />
            </Array>
          </mxGeometry>
        </mxCell>
        <mxCell id="J8reJ44I3U6G_yb-iDPF-17" value="Записать хэш" style="html=1;verticalAlign=bottom;endArrow=block;curved=0;rounded=0;entryX=0;entryY=0;entryDx=0;entryDy=5;entryPerimeter=0;" parent="1" target="J8reJ44I3U6G_yb-iDPF-11" edge="1">
          <mxGeometry x="-0.6667" y="5" relative="1" as="geometry">
            <mxPoint x="684.9999999999995" y="995" as="sourcePoint" />
            <mxPoint x="875.0000000000002" y="1011.5" as="targetPoint" />
            <mxPoint as="offset" />
          </mxGeometry>
        </mxCell>
        <mxCell id="J8reJ44I3U6G_yb-iDPF-11" value="" style="html=1;points=[[0,0,0,0,5],[0,1,0,0,-5],[1,0,0,0,5],[1,1,0,0,-5]];perimeter=orthogonalPerimeter;outlineConnect=0;targetShapes=umlLifeline;portConstraint=eastwest;newEdgeStyle={&quot;curved&quot;:0,&quot;rounded&quot;:0};" parent="1" vertex="1">
          <mxGeometry x="1075" y="990" width="10" height="60" as="geometry" />
        </mxCell>
        <mxCell id="J8reJ44I3U6G_yb-iDPF-14" value="Обновление данных о пользователе" style="html=1;verticalAlign=bottom;endArrow=block;curved=0;rounded=0;entryX=0;entryY=0;entryDx=0;entryDy=5;entryPerimeter=0;" parent="1" source="J8reJ44I3U6G_yb-iDPF-11" target="J8reJ44I3U6G_yb-iDPF-12" edge="1">
          <mxGeometry y="5" relative="1" as="geometry">
            <mxPoint x="895" y="1032.5" as="sourcePoint" />
            <mxPoint x="1085" y="1032.5" as="targetPoint" />
            <mxPoint as="offset" />
          </mxGeometry>
        </mxCell>
        <mxCell id="J8reJ44I3U6G_yb-iDPF-15" value="Ответ" style="html=1;verticalAlign=bottom;endArrow=open;dashed=1;endSize=8;curved=0;rounded=0;exitX=0;exitY=1;exitDx=0;exitDy=-5;exitPerimeter=0;" parent="1" source="J8reJ44I3U6G_yb-iDPF-12" target="J8reJ44I3U6G_yb-iDPF-11" edge="1">
          <mxGeometry x="0.2105" relative="1" as="geometry">
            <mxPoint x="1085" y="1063.5" as="targetPoint" />
            <mxPoint x="1275" y="1063.5" as="sourcePoint" />
            <mxPoint as="offset" />
          </mxGeometry>
        </mxCell>
        <mxCell id="J8reJ44I3U6G_yb-iDPF-18" value="Ответ" style="html=1;verticalAlign=bottom;endArrow=open;dashed=1;endSize=8;curved=0;rounded=0;exitX=0;exitY=1;exitDx=0;exitDy=-5;exitPerimeter=0;" parent="1" source="J8reJ44I3U6G_yb-iDPF-11" edge="1">
          <mxGeometry x="0.8205" y="-5" relative="1" as="geometry">
            <mxPoint x="684.9999999999995" y="1045" as="targetPoint" />
            <mxPoint x="1285" y="1045" as="sourcePoint" />
            <mxPoint as="offset" />
          </mxGeometry>
        </mxCell>
        <mxCell id="XjYcZcesML744aaThFoi-12" value="&lt;b&gt;alt&lt;/b&gt;" style="shape=umlFrame;whiteSpace=wrap;html=1;pointerEvents=0;width=40;height=20;" vertex="1" parent="1">
          <mxGeometry x="-40" y="220" width="1370" height="1020" as="geometry" />
        </mxCell>
        <mxCell id="XjYcZcesML744aaThFoi-13" value="" style="endArrow=none;dashed=1;html=1;rounded=0;exitX=-0.001;exitY=0.117;exitDx=0;exitDy=0;exitPerimeter=0;" edge="1" parent="1">
          <mxGeometry width="50" height="50" relative="1" as="geometry">
            <mxPoint x="-41.36999999999966" y="305.19500000000016" as="sourcePoint" />
            <mxPoint x="1331.23" y="307.45000000000005" as="targetPoint" />
          </mxGeometry>
        </mxCell>
        <mxCell id="XjYcZcesML744aaThFoi-14" value="[пользователь не найден]" style="text;html=1;align=center;verticalAlign=middle;whiteSpace=wrap;rounded=0;" vertex="1" parent="1">
          <mxGeometry y="230" width="70" height="30" as="geometry" />
        </mxCell>
        <mxCell id="XjYcZcesML744aaThFoi-15" value="[else]" style="text;html=1;align=center;verticalAlign=middle;whiteSpace=wrap;rounded=0;" vertex="1" parent="1">
          <mxGeometry x="-40" y="300" width="50" height="30" as="geometry" />
        </mxCell>
        <mxCell id="XjYcZcesML744aaThFoi-11" value="Успех" style="html=1;verticalAlign=bottom;endArrow=open;dashed=1;endSize=8;curved=0;rounded=0;exitX=0;exitY=1;exitDx=0;exitDy=-5;exitPerimeter=0;" edge="1" parent="1" source="XjYcZcesML744aaThFoi-2" target="38HP3IzOZBY9DrxJzYLU-5">
          <mxGeometry x="0.6316" y="-5" relative="1" as="geometry">
            <mxPoint x="685" y="302" as="targetPoint" />
            <mxPoint x="870" y="350" as="sourcePoint" />
            <mxPoint as="offset" />
          </mxGeometry>
        </mxCell>
        <mxCell id="XjYcZcesML744aaThFoi-16" value="" style="html=1;verticalAlign=bottom;endArrow=open;dashed=1;endSize=8;curved=0;rounded=0;entryX=1;entryY=0;entryDx=0;entryDy=5;entryPerimeter=0;" edge="1" parent="1" source="38HP3IzOZBY9DrxJzYLU-5" target="XjYcZcesML744aaThFoi-17">
          <mxGeometry x="0.8814" y="-10" relative="1" as="geometry">
            <mxPoint x="455" y="244.58" as="targetPoint" />
            <mxPoint x="645" y="244.58" as="sourcePoint" />
            <mxPoint as="offset" />
          </mxGeometry>
        </mxCell>
        <mxCell id="XjYcZcesML744aaThFoi-18" value="Сообщение &quot;Восстановление пароля невозможно&quot;" style="edgeLabel;html=1;align=center;verticalAlign=middle;resizable=0;points=[];" vertex="1" connectable="0" parent="XjYcZcesML744aaThFoi-16">
          <mxGeometry x="0.6154" relative="1" as="geometry">
            <mxPoint x="60" y="-15" as="offset" />
          </mxGeometry>
        </mxCell>
        <mxCell id="XjYcZcesML744aaThFoi-17" value="" style="html=1;points=[[0,0,0,0,5],[0,1,0,0,-5],[1,0,0,0,5],[1,1,0,0,-5]];perimeter=orthogonalPerimeter;outlineConnect=0;targetShapes=umlLifeline;portConstraint=eastwest;newEdgeStyle={&quot;curved&quot;:0,&quot;rounded&quot;:0};" vertex="1" parent="1">
          <mxGeometry x="275" y="250" width="10" height="40" as="geometry" />
        </mxCell>
        <mxCell id="XjYcZcesML744aaThFoi-19" value="" style="html=1;verticalAlign=bottom;endArrow=open;dashed=1;endSize=8;curved=0;rounded=0;exitX=0;exitY=1;exitDx=0;exitDy=-5;exitPerimeter=0;" edge="1" parent="1" source="XjYcZcesML744aaThFoi-17" target="38HP3IzOZBY9DrxJzYLU-4">
          <mxGeometry x="0.8814" y="-10" relative="1" as="geometry">
            <mxPoint x="295" y="265" as="targetPoint" />
            <mxPoint x="685" y="265" as="sourcePoint" />
            <mxPoint as="offset" />
          </mxGeometry>
        </mxCell>
        <mxCell id="XjYcZcesML744aaThFoi-20" value="Отобразить страницу сообщения" style="edgeLabel;html=1;align=center;verticalAlign=middle;resizable=0;points=[];" vertex="1" connectable="0" parent="XjYcZcesML744aaThFoi-19">
          <mxGeometry x="0.6154" relative="1" as="geometry">
            <mxPoint x="60" y="-15" as="offset" />
          </mxGeometry>
        </mxCell>
        <mxCell id="XjYcZcesML744aaThFoi-21" value="" style="html=1;points=[[0,0,0,0,5],[0,1,0,0,-5],[1,0,0,0,5],[1,1,0,0,-5]];perimeter=orthogonalPerimeter;outlineConnect=0;targetShapes=umlLifeline;portConstraint=eastwest;newEdgeStyle={&quot;curved&quot;:0,&quot;rounded&quot;:0};" vertex="1" parent="1">
          <mxGeometry x="275" y="340" width="10" height="40" as="geometry" />
        </mxCell>
        <mxCell id="XjYcZcesML744aaThFoi-22" value="" style="html=1;verticalAlign=bottom;endArrow=open;dashed=1;endSize=8;curved=0;rounded=0;exitX=0;exitY=1;exitDx=0;exitDy=-5;exitPerimeter=0;" edge="1" parent="1" source="XjYcZcesML744aaThFoi-21" target="38HP3IzOZBY9DrxJzYLU-4">
          <mxGeometry x="0.8814" y="-10" relative="1" as="geometry">
            <mxPoint x="95" y="295" as="targetPoint" />
            <mxPoint x="285" y="295" as="sourcePoint" />
            <mxPoint as="offset" />
          </mxGeometry>
        </mxCell>
        <mxCell id="XjYcZcesML744aaThFoi-23" value="Отобразить страницу" style="edgeLabel;html=1;align=center;verticalAlign=middle;resizable=0;points=[];" vertex="1" connectable="0" parent="XjYcZcesML744aaThFoi-22">
          <mxGeometry x="0.6154" relative="1" as="geometry">
            <mxPoint x="60" y="-15" as="offset" />
          </mxGeometry>
        </mxCell>
        <mxCell id="XjYcZcesML744aaThFoi-24" value="&lt;span style=&quot;color: rgb(0, 0, 0); font-family: Helvetica; font-size: 12px; font-style: normal; font-variant-ligatures: normal; font-variant-caps: normal; font-weight: 400; letter-spacing: normal; orphans: 2; text-align: center; text-indent: 0px; text-transform: none; widows: 2; word-spacing: 0px; -webkit-text-stroke-width: 0px; background-color: rgb(251, 251, 251); text-decoration-thickness: initial; text-decoration-style: initial; text-decoration-color: initial; float: none; display: inline !important;&quot;&gt;[else]&lt;/span&gt;" style="text;whiteSpace=wrap;html=1;" vertex="1" parent="1">
          <mxGeometry y="1182" width="40" height="30" as="geometry" />
        </mxCell>
      </root>
    </mxGraphModel>
  </diagram>
</mxfile>
